<svg width="32" height="32" viewBox="0 0 32 32" fill="none" xmlns="http://www.w3.org/2000/svg">
<path d="M27 15H5C3.89543 15 3 15.8954 3 17V18C3 19.1046 3.89543 20 5 20H27C28.1046 20 29 19.1046 29 18V17C29 15.8954 28.1046 15 27 15Z" fill="#565656"/>
<path d="M27.143 16H4.857C4.38369 16 4 16.3837 4 16.857V17.143C4 17.6163 4.38369 18 4.857 18H27.143C27.6163 18 28 17.6163 28 17.143V16.857C28 16.3837 27.6163 16 27.143 16Z" fill="#ACACAC"/>
<path d="M8 12C6.892 12 6 12.892 6 14V20C6 25.54 10.46 30 16 30C21.54 30 26 25.54 26 20V14C26 12.892 25.108 12 24 12C22.892 12 22 12.892 22 14V19C22 22.324 19.324 25 16 25C12.676 25 10 22.324 10 19V14C10 12.892 9.108 12 8 12Z" fill="#444444"/>
<path d="M8 13C7.446 13 7 13.446 7 14V19C7 23.986 11.014 28 16 28C20.986 28 25 23.986 25 19V14C25 13.446 24.554 13 24 13C23.446 13 23 13.446 23 14V19C23 22.878 19.878 26 16 26C12.122 26 9 22.878 9 19V14C9 13.446 8.554 13 8 13Z" fill="#838383"/>
<path d="M21 7C21 4.23858 18.7614 2 16 2C13.2386 2 11 4.23858 11 7V19C11 21.7614 13.2386 24 16 24C18.7614 24 21 21.7614 21 19V7Z" fill="#909090"/>
<path d="M20 8C20 5.79086 18.2091 4 16 4C13.7909 4 12 5.79086 12 8V19C12 21.2091 13.7909 23 16 23C18.2091 23 20 21.2091 20 19V8Z" fill="#2E2E2E"/>
<path d="M18 30C18 28.8954 17.1046 28 16 28C14.8954 28 14 28.8954 14 30C14 31.1046 14.8954 32 16 32C17.1046 32 18 31.1046 18 30Z" fill="#444444"/>
<path d="M17 27C17 26.4477 16.5523 26 16 26C15.4477 26 15 26.4477 15 27V29C15 29.5523 15.4477 30 16 30C16.5523 30 17 29.5523 17 29V27Z" fill="#838383"/>
<path d="M24.7097 18.6333C28.1392 18.6333 30.9194 21.4135 30.9194 24.843V25.2903C30.9194 28.7198 28.1392 31.5 24.7097 31.5C21.2802 31.5 18.5 28.7198 18.5 25.2903V24.843C18.5 21.4135 21.2802 18.6333 24.7097 18.6333Z" fill="#CF3B00" stroke="#444444"/>
<mask id="path-10-inside-1_2_7" fill="white">
<path d="M24.7097 18.1333C20.9925 18.1333 18 21.1258 18 24.843V25.2903C18 29.0075 20.9925 32 24.7097 32C28.4268 32 31.4194 29.0075 31.4194 25.2903V24.843C31.4194 21.1258 28.4268 18.1333 24.7097 18.1333ZM24.7097 18.5806C26.3706 18.5806 27.9634 19.2404 29.1378 20.4148C30.3123 21.5893 30.972 23.1821 30.972 24.843C30.972 26.5039 30.3123 28.0968 29.1378 29.2712C27.9634 30.4456 26.3706 31.1054 24.7097 31.1054C23.0488 31.1054 21.4559 30.4456 20.2815 29.2712C19.1071 28.0968 18.4473 26.5039 18.4473 24.843C18.4473 23.1821 19.1071 21.5893 20.2815 20.4148C21.4559 19.2404 23.0488 18.5806 24.7097 18.5806Z"/>
</mask>
<path d="M24.7097 18.1333C20.9925 18.1333 18 21.1258 18 24.843V25.2903C18 29.0075 20.9925 32 24.7097 32C28.4268 32 31.4194 29.0075 31.4194 25.2903V24.843C31.4194 21.1258 28.4268 18.1333 24.7097 18.1333ZM24.7097 18.5806C26.3706 18.5806 27.9634 19.2404 29.1378 20.4148C30.3123 21.5893 30.972 23.1821 30.972 24.843C30.972 26.5039 30.3123 28.0968 29.1378 29.2712C27.9634 30.4456 26.3706 31.1054 24.7097 31.1054C23.0488 31.1054 21.4559 30.4456 20.2815 29.2712C19.1071 28.0968 18.4473 26.5039 18.4473 24.843C18.4473 23.1821 19.1071 21.5893 20.2815 20.4148C21.4559 19.2404 23.0488 18.5806 24.7097 18.5806Z" fill="black"/>
<path d="M24.7097 17.1333C20.4402 17.1333 17 20.5736 17 24.843H19C19 21.6781 21.5448 19.1333 24.7097 19.1333V17.1333ZM17 24.843V25.2903H19V24.843H17ZM17 25.2903C17 29.5598 20.4402 33 24.7097 33V31C21.5448 31 19 28.4552 19 25.2903H17ZM24.7097 33C28.9791 33 32.4194 29.5598 32.4194 25.2903H30.4194C30.4194 28.4552 27.8746 31 24.7097 31V33ZM32.4194 25.2903V24.843H30.4194V25.2903H32.4194ZM32.4194 24.843C32.4194 20.5736 28.9791 17.1333 24.7097 17.1333V19.1333C27.8746 19.1333 30.4194 21.6781 30.4194 24.843H32.4194ZM24.7097 19.5806C26.1053 19.5806 27.4438 20.1351 28.4307 21.1219L29.8449 19.7077C28.483 18.3458 26.6358 17.5806 24.7097 17.5806V19.5806ZM28.4307 21.1219C29.4176 22.1088 29.972 23.4473 29.972 24.843H31.972C31.972 22.9169 31.2069 21.0697 29.8449 19.7077L28.4307 21.1219ZM29.972 24.843C29.972 26.2387 29.4176 27.5772 28.4307 28.5641L29.8449 29.9783C31.2069 28.6163 31.972 26.7691 31.972 24.843H29.972ZM28.4307 28.5641C27.4438 29.551 26.1053 30.1054 24.7097 30.1054V32.1054C26.6358 32.1054 28.483 31.3402 29.8449 29.9783L28.4307 28.5641ZM24.7097 30.1054C23.314 30.1054 21.9755 29.551 20.9886 28.5641L19.5744 29.9783C20.9364 31.3402 22.7836 32.1054 24.7097 32.1054V30.1054ZM20.9886 28.5641C20.0017 27.5772 19.4473 26.2387 19.4473 24.843H17.4473C17.4473 26.7691 18.2125 28.6163 19.5744 29.9783L20.9886 28.5641ZM19.4473 24.843C19.4473 23.4473 20.0017 22.1088 20.9886 21.1219L19.5744 19.7077C18.2125 21.0697 17.4473 22.9169 17.4473 24.843H19.4473ZM20.9886 21.1219C21.9755 20.1351 23.314 19.5806 24.7097 19.5806V17.5806C22.7836 17.5806 20.9364 18.3458 19.5744 19.7077L20.9886 21.1219Z" fill="#444444" mask="url(#path-10-inside-1_2_7)"/>
<path d="M22.6968 22.3828C22.5188 22.3828 22.3482 22.4535 22.2223 22.5793C22.0965 22.7051 22.0258 22.8758 22.0258 23.0537C22.026 23.2316 22.0968 23.4022 22.2226 23.5279L23.7609 25.0666L22.2222 26.6054C22.0965 26.7312 22.0258 26.9017 22.0258 27.0795C22.0258 27.2575 22.0965 27.4282 22.2223 27.554C22.3482 27.6798 22.5188 27.7505 22.6968 27.7505C22.8747 27.7504 23.0452 27.6796 23.1709 27.5537L24.7097 26.0154L26.2417 27.5474C26.3042 27.6117 26.379 27.6628 26.4616 27.6977C26.5442 27.7325 26.6329 27.7505 26.7226 27.7505C26.9005 27.7505 27.0712 27.6798 27.197 27.554C27.3229 27.4282 27.3935 27.2575 27.3935 27.0795C27.3934 26.9017 27.3226 26.7311 27.1967 26.6054L25.6584 25.0666L27.1905 23.5346C27.2547 23.4721 27.3058 23.3973 27.3407 23.3147C27.3756 23.2321 27.3935 23.1434 27.3935 23.0537C27.3935 22.8758 27.3229 22.7051 27.197 22.5793C27.0712 22.4535 26.9005 22.3828 26.7226 22.3828C26.5447 22.3829 26.3741 22.4537 26.2484 22.5796L24.7097 24.1179L23.1776 22.5859C23.1754 22.5836 23.1732 22.5814 23.1709 22.5791C23.0452 22.4533 22.8747 22.3825 22.6968 22.3823V22.3828Z" fill="white"/>
</svg>
